<?xml version="1.0" encoding="UTF-8"?>
<svg width="168px" height="130px" viewBox="0 0 168 130" version="1.1" xmlns="http://www.w3.org/2000/svg" xmlns:xlink="http://www.w3.org/1999/xlink">
    <title>Artboard Copy 4</title>
    <defs>
        <linearGradient x1="100%" y1="50%" x2="4.87186121%" y2="50%" id="linearGradient-1">
            <stop stop-color="#F0A500" offset="0%"></stop>
            <stop stop-color="#6C5CE7" offset="100%"></stop>
        </linearGradient>
    </defs>
    <g id="Artboard-Copy-4" stroke="none" stroke-width="1" fill="none" fill-rule="evenodd">
        <path d="M101,25 C112.045695,25 122.045695,29.4771525 129.284271,36.7157288 C136.522847,43.954305 141,53.954305 141,65 C141,76.045695 136.522847,86.045695 129.284271,93.2842712 C122.045695,100.522847 112.045695,105 101,105 C96.4890648,105 92.1523698,104.253756 88.1086151,102.876813 C93.3948612,99.2263988 97.8792795,94.4980946 101.244095,89.0093599 C105.528767,82.0201442 108,73.7987583 108,65 C108,56.2014176 105.528863,47.9801845 101.244592,40.991129 C97.8794113,35.5014133 93.3943662,30.7724432 88.1091734,27.1222926 C92.1534762,25.7460463 96.4896429,25 101,25 Z M62,25 C66.3554182,25 70.5484063,25.6956477 74.4735621,26.9825099 L74.893,27.123 L74.6901999,27.2635841 C69.664827,30.7731339 65.3734065,35.260835 62.0921435,40.4507109 L61.7563172,40.9900881 C57.4713946,47.9793235 55,56.2009563 55,65 C55,73.7072462 57.4201277,81.8490607 61.6225729,88.7908169 C64.977562,94.3327134 69.4697502,99.1092425 74.7737925,102.796992 C70.8615142,104.254586 66.5168931,105 62,105 C50.954305,105 40.954305,100.522847 33.7157288,93.2842712 C26.4771525,86.045695 22,76.045695 22,65 C22,53.954305 26.4771525,43.954305 33.7157288,36.7157288 C40.954305,29.4771525 50.954305,25 62,25 Z" id="Combined-Shape" stroke="url(#linearGradient-1)" stroke-width="6"></path>
    </g>
</svg>